<?xml version="1.0" encoding="UTF-8" standalone="no"?>
<!-- Generator: Adobe Illustrator 19.2.1, SVG Export Plug-In . SVG Version: 6.00 Build 0)  -->

<svg
   xmlns:dc="http://purl.org/dc/elements/1.1/"
   xmlns:cc="http://creativecommons.org/ns#"
   xmlns:rdf="http://www.w3.org/1999/02/22-rdf-syntax-ns#"
   xmlns:svg="http://www.w3.org/2000/svg"
   xmlns="http://www.w3.org/2000/svg"
   xmlns:sodipodi="http://sodipodi.sourceforge.net/DTD/sodipodi-0.dtd"
   xmlns:inkscape="http://www.inkscape.org/namespaces/inkscape"
   version="1.1"
   id="svg7384"
   x="0px"
   y="0px"
   viewBox="0 0 16 16"
   xml:space="preserve"
   inkscape:version="0.91 r13725"
   sodipodi:docname="family_icon.svg"
   width="16"
   height="16"><metadata
     id="metadata21"><rdf:RDF><cc:Work
         rdf:about=""><dc:format>image/svg+xml</dc:format><dc:type
           rdf:resource="http://purl.org/dc/dcmitype/StillImage" /><dc:title>appcenter_icons</dc:title></cc:Work></rdf:RDF></metadata><defs
     id="defs19" /><sodipodi:namedview
     pagecolor="#ffffff"
     bordercolor="#666666"
     borderopacity="1"
     objecttolerance="10"
     gridtolerance="10"
     guidetolerance="10"
     inkscape:pageopacity="0"
     inkscape:pageshadow="2"
     inkscape:window-width="1920"
     inkscape:window-height="1046"
     id="namedview17"
     showgrid="false"
     inkscape:zoom="16"
     inkscape:cx="14.477341"
     inkscape:cy="10.028724"
     inkscape:window-x="0"
     inkscape:window-y="34"
     inkscape:window-maximized="1"
     inkscape:current-layer="svg7384" /><style
     type="text/css"
     id="style3">
	.st0{fill:none;}
	.st1{fill:#BEBEBE;}
</style><title
     id="title5">appcenter_icons</title><g
     id="g4217"
     transform="matrix(0.68305133,0,0,0.68305133,-0.19661627,-0.19661598)"><g
       transform="translate(20.779375,5.5625421)"
       id="g3372"><path
         style="fill:#bebebe"
         inkscape:connector-curvature="0"
         class="st1"
         d="m -13.891525,0.91525423 0,0 c 2.1,0 3.7,-2.10000003 2.7,-4.30000003 -0.3,-0.5 -0.7,-0.9 -1.2,-1.2 -2.2,-1.1 -4.4,0.5 -4.4,2.6 l 0,0.1 c 0,1.50000003 1.3,2.80000003 2.9,2.80000003 z"
         id="path3359" /><path
         id="path3363"
         style="fill:#bebebe"
         d="m -11.291525,1.3171623 c 0.5,0 1,0.3 1.3,0.8000001 0.5,1.1000001 1.1,2.1999999 1.7,3.3999999 0.2,0.4000001 0.5,0.9000001 0.7,1.3 0.2,0.5 0.1,1.1000001 -0.3,1.4999999 -0.4,0.4 -1,0.5 -1.5,0.1999999 -0.3,-0.1 -0.5,-0.4 -0.6,-0.5999997 l -1,-2 0,0.2 0,10.3000006 c 0,0.8 -0.6,1.4 -1.4,1.4 l 0,0 c -0.8,0 -1.4,-0.6 -1.4,-1.4 l 0,-5.6 c 0,-0.1 0.01011,-0.479773 -0.2,-0.480728 -0.21011,-9.56e-4 -0.2,0.378817 -0.2,0.478817 l 0,5.6 c 0,0.8 -0.6,1.4 -1.4,1.4 l 0,0 c -0.8,0 -1.4,-0.6 -1.4,-1.4 l 0,-10.2999997 0,-0.2 -1,2 c -0.1,0.2 -0.3,0.5 -0.6,0.6 -0.5,0.3 -1.1,0.2 -1.5,-0.2 -0.4,-0.4 -0.5,-1 -0.3,-1.5 0.2,-0.4 0.5,-0.9 0.7,-1.3 0.6,-1.2 1.2,-2.3 1.7,-3.4 0.3,-0.5 0.8,-0.8 1.3,-0.8"
         inkscape:connector-curvature="0"
         sodipodi:nodetypes="ccscscsccsccsscssccsccscscscc" /></g><g
       transform="translate(31.490938,5.5625421)"
       id="g3376"><path
         id="path3378"
         d="m -13.891525,0.91525423 0,0 c 2.1,0 3.7,-2.10000003 2.7,-4.30000003 -0.3,-0.5 -0.7,-0.9 -1.2,-1.2 -2.2,-1.1 -4.4,0.5 -4.4,2.6 l 0,0.1 c 0,1.50000003 1.3,2.80000003 2.9,2.80000003 z"
         class="st1"
         inkscape:connector-curvature="0"
         style="fill:#bebebe" /><path
         sodipodi:nodetypes="ccscscsccsccsscssccsccscscscc"
         inkscape:connector-curvature="0"
         d="m -11.578787,1.3171623 c 0.5,0 1,0.3 1.3,0.8000001 0.4999999,1.1000001 1.0999999,2.1999999 1.6999999,3.3999999 0.2,0.4000001 0.5,0.9000001 0.7,1.3 0.2,0.5 0.1,1.1000001 -0.3,1.4999999 -0.4,0.4 -1,0.5 -1.5,0.1999999 -0.3,-0.1 -0.4999999,-0.4 -0.5999999,-0.5999997 l -1,-2 0,0.2 0,10.3000006 c 0,0.8 -0.6,1.4 -1.4,1.4 l 0,0 c -0.8,0 -1.4,-0.6 -1.4,-1.4 l 0,-5.6 c 0,-0.1 0.01011,-0.479773 -0.2,-0.480728 -0.21011,-9.56e-4 -0.2,0.378817 -0.2,0.478817 l 0,5.6 c 0,0.8 -0.6,1.4 -1.4,1.4 l 0,0 c -0.8,0 -1.4,-0.6 -1.4,-1.4 l 0,-10.2999997 0,-0.2 -1,2 c -0.1,0.2 -0.3,0.5 -0.6,0.6 -0.5,0.3 -1.1,0.2 -1.5,-0.2 -0.4,-0.4 -0.5,-1 -0.3,-1.5 0.2,-0.4 0.5,-0.9 0.7,-1.3 0.6,-1.2 1.2,-2.3 1.7,-3.4 0.3,-0.5 0.8,-0.8 1.3,-0.8"
         style="fill:#bebebe"
         id="path3380" /></g></g></svg>