<?xml version="1.0" encoding="UTF-8" standalone="no"?>
<svg
   xmlns:dc="http://purl.org/dc/elements/1.1/"
   xmlns:cc="http://creativecommons.org/ns#"
   xmlns:rdf="http://www.w3.org/1999/02/22-rdf-syntax-ns#"
   xmlns:svg="http://www.w3.org/2000/svg"
   xmlns="http://www.w3.org/2000/svg"
   xmlns:sodipodi="http://sodipodi.sourceforge.net/DTD/sodipodi-0.dtd"
   xmlns:inkscape="http://www.inkscape.org/namespaces/inkscape"
   version="1.1"
   x="0px"
   y="0px"
   viewBox="0 0 16 16"
   enable-background="new 0 0 100 100"
   xml:space="preserve"
   id="svg2"
   inkscape:version="0.91 r13725"
   sodipodi:docname="gs-category-newspaper-symbolic.svg"
   width="16"
   height="16"><metadata
     id="metadata10"><rdf:RDF><cc:Work
         rdf:about=""><dc:format>image/svg+xml</dc:format><dc:type
           rdf:resource="http://purl.org/dc/dcmitype/StillImage" /><dc:title></dc:title></cc:Work></rdf:RDF></metadata><defs
     id="defs8" /><sodipodi:namedview
     pagecolor="#ffffff"
     bordercolor="#666666"
     borderopacity="1"
     objecttolerance="10"
     gridtolerance="10"
     guidetolerance="10"
     inkscape:pageopacity="0"
     inkscape:pageshadow="2"
     inkscape:window-width="1920"
     inkscape:window-height="1046"
     id="namedview6"
     showgrid="false"
     inkscape:zoom="9.44"
     inkscape:cx="12.106139"
     inkscape:cy="19.692776"
     inkscape:window-x="0"
     inkscape:window-y="34"
     inkscape:window-maximized="1"
     inkscape:current-layer="svg2" /><path
     d="m 15.43111,2.9866672 -1.813333,0 0,-1.0133333 c 0,-0.3022222 -0.266666,-0.5688888 -0.586667,-0.5688888 l -12.47999925,0 C 0.24888855,1.4044451 -5.0000002e-8,1.6711117 -5.0000002e-8,1.9733339 l 0,10.8622211 c 0,0.96 0.799999300000002,1.76 1.759999750000002,1.76 l 12.4800003,0 c 0.959999,-0.01777 1.76,-0.782222 1.76,-1.76 L 16,3.5377781 C 16,3.2355559 15.751112,2.9866672 15.43111,2.9866672 l 0,0 z M 1.7599997,13.439999 c -0.3377782,0 -0.6044446,-0.266666 -0.6044446,-0.604444 l 0,-10.2755545 11.3244449,0 0,10.2755545 c 0,0.195556 0.03557,0.408889 0.106672,0.604444 l -10.8266673,0 z M 14.844443,12.835555 c 0,0.337778 -0.266667,0.604444 -0.622221,0.604444 -0.337778,0 -0.622223,-0.266666 -0.622223,-0.604444 l 0,-8.71111 1.244444,0 0,8.71111 z m -7.6444431,-3.9999991 4.1244421,0 0,-1.0133335 -4.1244421,0 0,1.0133335 z m 0,2.6311091 4.1244421,0 0,-1.013332 -4.1244421,0 0,1.013332 z m -4.9244444,-7.2711089 0,2.0266664 9.0488865,0 0,-2.0266664 -9.0488865,0 z m 0,7.2711089 3.8222217,0 0,-3.6266646 -3.8222217,0 0,3.6266646 z"
     id="path4"
     inkscape:connector-curvature="0"
     style="fill:#bebebe;fill-opacity:1" /></svg>