<?xml version="1.0" encoding="UTF-8" standalone="no"?>
<!-- Created with Inkscape (http://www.inkscape.org/) -->

<svg
   xmlns:dc="http://purl.org/dc/elements/1.1/"
   xmlns:cc="http://creativecommons.org/ns#"
   xmlns:rdf="http://www.w3.org/1999/02/22-rdf-syntax-ns#"
   xmlns:svg="http://www.w3.org/2000/svg"
   xmlns="http://www.w3.org/2000/svg"
   xmlns:sodipodi="http://sodipodi.sourceforge.net/DTD/sodipodi-0.dtd"
   xmlns:inkscape="http://www.inkscape.org/namespaces/inkscape"
   width="16"
   height="16"
   viewBox="0 0 16 16"
   version="1.1"
   id="svg36018"
   inkscape:version="0.92.2 (5c3e80d, 2017-08-06)"
   sodipodi:docname="software-requires-download-symbolic.svg">
  <defs
     id="defs36012" />
  <sodipodi:namedview
     id="base"
     pagecolor="#ffffff"
     bordercolor="#666666"
     borderopacity="1.0"
     inkscape:pageopacity="0.0"
     inkscape:pageshadow="2"
     inkscape:zoom="11.313708"
     inkscape:cx="15.580152"
     inkscape:cy="3.2082336"
     inkscape:document-units="px"
     inkscape:current-layer="layer1"
     showgrid="false"
     units="px"
     showborder="false"
     borderlayer="true"
     inkscape:showpageshadow="false"
     inkscape:window-width="1920"
     inkscape:window-height="1053"
     inkscape:window-x="0"
     inkscape:window-y="27"
     inkscape:window-maximized="1">
    <inkscape:grid
       type="xygrid"
       id="grid36020" />
  </sodipodi:namedview>
  <metadata
     id="metadata36015">
    <rdf:RDF>
      <cc:Work
         rdf:about="">
        <dc:format>image/svg+xml</dc:format>
        <dc:type
           rdf:resource="http://purl.org/dc/dcmitype/StillImage" />
        <dc:title></dc:title>
      </cc:Work>
    </rdf:RDF>
  </metadata>
  <g
     inkscape:label="Layer 1"
     inkscape:groupmode="layer"
     id="layer1"
     transform="translate(0,-292.76665)">
    <g
       id="g954"
       style="fill:#888a85;fill-opacity:1;stroke-width:0.89472222"
       transform="matrix(1.1176653,0,0,1.1176653,-29.144509,-54.012407)">
      <path
         id="path8"
         d="m 37.260632,312.20049 a 3.291,3.291 0 0 0 -0.652,0.071 3.859,3.859 0 0 0 -3.435999,-2 3.923,3.923 0 0 0 -3.985,4.1 2.23,2.23 0 0 0 -0.9,-0.2 2.131,2.131 0 0 0 -2.161,2.3 2.13,2.13 0 0 0 2.157,2.3 h 2.619 a 0.25,0.25 0 0 0 0.25,-0.25 v -1.2 a 1,1 0 0 1 1,-1 h 2 a 1,1 0 0 1 1,1 v 1.2 a 0.25,0.25 0 0 0 0.25,0.25 h 1.957999 v -0.013 a 3.035,3.035 0 0 0 2.978,-3.275 3.042,3.042 0 0 0 -3.078,-3.283 z"
         class="a"
         inkscape:connector-curvature="0"
         style="fill:#888a85;fill-opacity:1;stroke-width:0.89472222" />
      <path
         id="path10"
         d="m 34.152633,321.32049 v -3.489 a 0.5,0.5 0 0 0 -0.5,-0.5 h -1 a 0.5,0.5 0 0 0 -0.5,0.5 v 3.489 h -1.881 a 0.113,0.113 0 0 0 -0.081,0.192 l 2.97,3.074 2.967999,-3.073 a 0.113,0.113 0 0 0 -0.081,-0.192 z"
         class="a"
         inkscape:connector-curvature="0"
         style="fill:#888a85;fill-opacity:1;stroke-width:0.89472222" />
    </g>
  </g>
</svg>
