<?xml version="1.0" encoding="UTF-8" standalone="no"?>
<!-- Created with Inkscape (http://www.inkscape.org/) -->

<svg
   xmlns:dc="http://purl.org/dc/elements/1.1/"
   xmlns:cc="http://creativecommons.org/ns#"
   xmlns:rdf="http://www.w3.org/1999/02/22-rdf-syntax-ns#"
   xmlns:svg="http://www.w3.org/2000/svg"
   xmlns="http://www.w3.org/2000/svg"
   xmlns:sodipodi="http://sodipodi.sourceforge.net/DTD/sodipodi-0.dtd"
   xmlns:inkscape="http://www.inkscape.org/namespaces/inkscape"
   width="16"
   height="16"
   viewBox="0 0 16 16"
   version="1.1"
   id="svg36018"
   inkscape:version="0.92.2 (5c3e80d, 2017-08-06)"
   sodipodi:docname="software-update-scheduled-symbolic.svg">
  <defs
     id="defs36012" />
  <sodipodi:namedview
     id="base"
     pagecolor="#ffffff"
     bordercolor="#666666"
     borderopacity="1.0"
     inkscape:pageopacity="0.0"
     inkscape:pageshadow="2"
     inkscape:zoom="11.313708"
     inkscape:cx="15.580152"
     inkscape:cy="3.2082336"
     inkscape:document-units="px"
     inkscape:current-layer="layer1"
     showgrid="false"
     units="px"
     showborder="false"
     borderlayer="true"
     inkscape:showpageshadow="false"
     inkscape:window-width="1920"
     inkscape:window-height="1053"
     inkscape:window-x="0"
     inkscape:window-y="27"
     inkscape:window-maximized="1">
    <inkscape:grid
       type="xygrid"
       id="grid36020" />
  </sodipodi:namedview>
  <metadata
     id="metadata36015">
    <rdf:RDF>
      <cc:Work
         rdf:about="">
        <dc:format>image/svg+xml</dc:format>
        <dc:type
           rdf:resource="http://purl.org/dc/dcmitype/StillImage" />
        <dc:title></dc:title>
      </cc:Work>
    </rdf:RDF>
  </metadata>
  <g
     inkscape:label="Layer 1"
     inkscape:groupmode="layer"
     id="layer1"
     transform="translate(0,-292.76665)">
    <g
       id="g880">
      <path
         style="fill:#888a85;fill-opacity:1;stroke-width:1"
         id="path8-3"
         d="m 15.860842,300.76664 a 7.5865817,7.5865817 0 0 1 -7.8796919,7.9939 7.5789685,7.5789685 0 0 1 -7.84162477,-7.9939 7.5789685,7.5789685 0 0 1 7.84162477,-7.99388 7.5865817,7.5865817 0 0 1 7.8796919,7.99388 z m -7.8670032,-5.07549 m 1.9769014,8.17407 1.1204138,-1.12167 a 0.31721783,0.31721783 0 0 0 0,-0.44919 l -1.9033068,-1.89569 a 0.31721783,0.31721783 0 0 1 -0.09263,-0.22459 v -4.48293 a 0.31721783,0.31721783 0 0 0 -0.317217,-0.31721 H 7.2020631 a 0.31721783,0.31721783 0 0 0 -0.3172178,0.31721 v 5.4054 a 0.31721783,0.31721783 0 0 0 0.092627,0.22459 l 2.5491629,2.54535 a 0.31721783,0.31721783 0 0 0 0.449181,0 z"
         class="a"
         inkscape:connector-curvature="0" />
    </g>
  </g>
</svg>
